<?xml version="1.0" encoding="utf-8"?>
<!-- Generator: Adobe Illustrator 24.2.0, SVG Export Plug-In . SVG Version: 6.00 Build 0)  -->
<svg version="1.1" id="Layer_1" xmlns="http://www.w3.org/2000/svg" xmlns:xlink="http://www.w3.org/1999/xlink" x="0px" y="0px"
	 viewBox="0 0 174 242" style="enable-background:new 0 0 174 242;" xml:space="preserve">
<style type="text/css">
	.st0{fill:#FFFFFF;}
</style>
<g>
	<g id="Laag_1">
		<path class="st0" d="M22.3,157.1l53.8,30.4c2.1,1.3,4.2,2.5,6.4,3.6c3.5,1.5,6-0.5,8.9-2.2l30.6-17.3l25.7-14.6
			c5.6-3.2,0.6-11.8-5-8.6l-60.1,34h5l-60.1-34C21.8,145.3,16.7,153.9,22.3,157.1L22.3,157.1z"/>
		<path class="st0" d="M80.3,20.9v137.9c0,6.1,9.5,6.1,9.5,0V20.9C89.8,14.8,80.3,14.8,80.3,20.9z"/>
		<path class="st0" d="M24.9,215.3h120.3c6.4,0,6.4-10,0-10H24.9C18.4,205.3,18.4,215.3,24.9,215.3z"/>
	</g>
</g>
</svg>
